<svg xmlns="http://www.w3.org/2000/svg" viewBox="0 0 340 78">
  <g transform="translate(0, 2) scale(0.37)">
    <rect x="30" y="80" width="42" height="100" rx="2" fill="#0e1f33"/>
    <rect x="128" y="80" width="42" height="100" rx="2" fill="#0e1f33"/>
    <rect x="34" y="92"  width="34" height="3" fill="#ffffff" opacity="0.45"/>
    <rect x="34" y="104" width="34" height="3" fill="#ffffff" opacity="0.45"/>
    <rect x="34" y="116" width="34" height="3" fill="#ffffff" opacity="0.45"/>
    <rect x="34" y="128" width="34" height="3" fill="#ffffff" opacity="0.45"/>
    <rect x="34" y="140" width="34" height="3" fill="#ffffff" opacity="0.45"/>
    <rect x="34" y="152" width="34" height="3" fill="#ffffff" opacity="0.45"/>
    <rect x="34" y="164" width="34" height="3" fill="#ffffff" opacity="0.45"/>
    <rect x="132" y="92"  width="34" height="3" fill="#ffffff" opacity="0.45"/>
    <rect x="132" y="104" width="34" height="3" fill="#ffffff" opacity="0.45"/>
    <rect x="132" y="116" width="34" height="3" fill="#ffffff" opacity="0.45"/>
    <rect x="132" y="128" width="34" height="3" fill="#ffffff" opacity="0.45"/>
    <rect x="132" y="140" width="34" height="3" fill="#ffffff" opacity="0.45"/>
    <rect x="132" y="152" width="34" height="3" fill="#ffffff" opacity="0.45"/>
    <rect x="132" y="164" width="34" height="3" fill="#ffffff" opacity="0.45"/>
    <rect x="78" y="40" width="44" height="140" rx="2" fill="#0e1f33"/>
    <rect x="116" y="44" width="3" height="124" fill="#ffffff" opacity="0.35"/>
    <g transform="translate(100, 22)">
      <path d="M0 -10 L1.6 -1.6 L10 0 L1.6 1.6 L0 10 L-1.6 1.6 L-10 0 L-1.6 -1.6 Z" fill="#0e1f33"/>
    </g>
    <rect x="14" y="180" width="172" height="3" rx="1.5" fill="#0e1f33"/>
  </g>
  <text x="88" y="38" font-family="Manrope, system-ui, sans-serif" font-weight="800" font-size="28" letter-spacing="-1" fill="#0e1f33">Nordiva Clean</text>
  <text x="89" y="57" font-family="Manrope, system-ui, sans-serif" font-weight="600" font-size="9.5" letter-spacing="2" fill="#0e1f33" opacity="0.5">GEBÄUDESERVICE · BÖNEN</text>
</svg>
